HIERARCHY
ROOT Hip
{
  OFFSET 0.0 0.0 0.0
  CHANNELS 6 Xposition Yposition Zposition Xrotation Yrotation Zrotation
  JOINT LowerSpine
  {
    OFFSET 0.0 0.061367 -0.03653
    CHANNELS 3 Xrotation Yrotation Zrotation
    JOINT MiddleSpine
    {
      OFFSET 0.0 0.056002 0.002633
      CHANNELS 3 Xrotation Yrotation Zrotation
      JOINT Chest
      {
        OFFSET 0.0 0.069296 -0.013882
        CHANNELS 3 Xrotation Yrotation Zrotation
        JOINT Neck
        {
          OFFSET 0.0 0.156156 -0.002923
          CHANNELS 3 Xrotation Yrotation Zrotation
          JOINT Head
          {
            OFFSET 0.0 0.088183 0.023986
            CHANNELS 3 Xrotation Yrotation Zrotation
            End Site
            {
              OFFSET 1e-06 0.123215 0.003678
            }
          }
        }
        JOINT LClavicle
        {
          OFFSET 0.014189 0.150698 0.046467
          CHANNELS 3 Xrotation Yrotation Zrotation
          JOINT LShoulder
          {
            OFFSET 0.082893 0.021616 -0.034976
            CHANNELS 3 Xrotation Yrotation Zrotation
            JOINT LForearm
            {
              OFFSET 0.195645 -0.000695 -0.001695
              CHANNELS 3 Xrotation Yrotation Zrotation
              JOINT LHand
              {
                OFFSET 0.163209 0.000474 -0.000977
                CHANNELS 3 Xrotation Yrotation Zrotation
                End Site
                {
                  OFFSET 0.0 0.006864 0.0
                }
              }
            }
          }
        }
        JOINT RClavicle
        {
          OFFSET -0.014189 0.150698 0.046467
          CHANNELS 3 Xrotation Yrotation Zrotation
          JOINT RShoulder
          {
            OFFSET -0.082908 0.021619 -0.034982
            CHANNELS 3 Xrotation Yrotation Zrotation
            JOINT RForearm
            {
              OFFSET -0.195645 -0.000695 -0.001695
              CHANNELS 3 Xrotation Yrotation Zrotation
              JOINT RHand
              {
                OFFSET -0.163209 0.000474 -0.000977
                CHANNELS 3 Xrotation Yrotation Zrotation
                End Site
                {
                  OFFSET 0.0 0.006864 0.0
                }
              }
            }
          }
        }
      }
    }
  }
  JOINT RThigh
  {
    OFFSET -0.072558 0.02774 -0.005953
    CHANNELS 3 Xrotation Yrotation Zrotation
    JOINT RShin
    {
      OFFSET -0.005253 -0.285537 0.0
      CHANNELS 3 Xrotation Yrotation Zrotation
      JOINT RFoot
      {
        OFFSET 0.0 -0.28038 0.0
        CHANNELS 3 Xrotation Yrotation Zrotation
        JOINT RToe
        {
          OFFSET 0.0 -0.030816 0.064441
          CHANNELS 3 Xrotation Yrotation Zrotation
          End Site
          {
            OFFSET 0.0 0.0 0.043231
          }
        }
      }
    }
  }
  JOINT LThigh
  {
    OFFSET 0.072557 0.027741 -0.005953
    CHANNELS 3 Xrotation Yrotation Zrotation
    JOINT LShin
    {
      OFFSET 0.005253 -0.285539 0.0
      CHANNELS 3 Xrotation Yrotation Zrotation
      JOINT LFoot
      {
        OFFSET 0.0 -0.28038 0.0
        CHANNELS 3 Xrotation Yrotation Zrotation
        JOINT LToe
        {
          OFFSET 0.0 -0.030816 0.064441
          CHANNELS 3 Xrotation Yrotation Zrotation
          End Site
          {
            OFFSET 0.0 0.0 0.043231
          }
        }
      }
    }
  }
}
MOTION
Frames: 10
Frame Time: 0.03333333333333333
-0.006757 0.558036 1.674496 36.929775 -73.903877 40.430935 -12.697444 5.81457 -2.416101 1.010146 -4.695981 -8.036221 -10.814786 -6.449104 8.13918 -7.381472 -8.386385 -5.039927 -6.238089 9.52362 1.314872 -2.152982 10.783289 -15.496168 27.42255 -27.506903 -50.754452 10.169168 -18.825445 -7.763537 -7.777336 -6.525344 4.591891 8.725743 0.1572 21.052841 21.252226 26.456797 47.222843 0.065752 18.443768 7.992755 9.911205 2.602921 3.273754 -2.63758 -6.245202 -0.943234 7.266933 -0.574996 4.69052 -5.83619 3.748941 11.197178 1.257298 -8.494827 -6.518742 -17.948685 -3.059113 -6.990569 11.391446 -2.464794 7.123296 3.318196 1.900469 -8.311085 -8.771694 7.050858 3.19896 
-0.022232 0.556028 1.675533 46.82803 -76.827103 50.491837 -12.542427 5.785562 -2.508845 1.103153 -4.929903 -8.047024 -10.328835 -6.873184 8.181193 -6.998491 -8.413325 -5.037762 -6.283994 9.49328 1.254343 -2.315691 10.905549 -15.572292 26.595551 -27.844788 -50.482876 9.923899 -18.492476 -7.435272 -7.82953 -6.524268 4.569486 8.858216 0.008708 20.980993 20.621485 27.325821 47.76263 0.001071 17.221611 7.888186 9.924885 2.663557 3.274277 -3.917812 -6.416591 -1.170704 8.306711 -0.956913 4.768405 -5.577484 3.13116 10.837407 1.388124 -8.528902 -6.539234 -17.126415 -3.279716 -6.988601 12.35283 -2.956354 7.614975 2.450181 2.133785 -8.166553 -8.787392 7.059451 3.239031 
-0.036466 0.554046 1.675788 58.930164 -78.828247 62.589935 -12.426204 5.861956 -2.54868 1.320156 -5.204071 -7.997105 -9.867242 -7.495125 8.205524 -6.669865 -8.517267 -4.945268 -6.352774 9.523144 1.206472 -2.556054 10.907173 -15.710848 25.907778 -28.023287 -50.283268 9.579354 -18.13213 -7.221141 -7.927277 -6.55381 4.560932 8.960694 0.068325 20.929575 20.01445 27.947638 48.246063 -0.223174 16.099794 7.855461 9.997916 2.749512 3.29213 -5.318002 -6.726835 -1.283133 8.872527 -1.282049 4.784309 -5.368135 2.655248 10.533896 1.642759 -8.602566 -6.561315 -16.7726 -3.534966 -6.849736 13.813427 -3.281489 8.002705 1.486032 2.504041 -8.078704 -8.848883 7.120381 3.303067 
-0.049091 0.552186 1.675855 75.432022 -80.18959 79.063774 -12.576913 5.984061 -2.530249 1.610045 -5.488046 -7.992514 -9.433239 -8.171371 8.233315 -6.601714 -8.705308 -4.838583 -6.403193 9.636896 1.18148 -2.734073 10.889356 -15.963291 25.440966 -28.233292 -50.049194 9.120531 -17.827765 -7.169083 -8.064936 -6.610549 4.588907 9.107673 0.263978 20.911224 19.5123 28.376715 48.515835 -0.440715 15.257859 7.913239 10.156662 2.844214 3.305914 -6.936951 -7.10114 -1.469554 9.13131 -1.578899 4.751011 -5.225378 2.297219 10.32039 1.944413 -8.732735 -6.595064 -16.588663 -3.630518 -6.572447 15.297722 -3.251693 8.138078 0.477426 2.995018 -8.022385 -9.000098 7.219182 3.392763 
-0.062539 0.550518 1.674983 93.199242 -80.462959 96.804535 -12.821471 6.135744 -2.527676 1.932853 -5.696249 -8.019153 -9.143412 -8.794564 8.278751 -6.709917 -8.939012 -4.794483 -6.448565 9.826226 1.188663 -2.897115 10.959813 -16.180391 25.348862 -28.593281 -49.503212 8.950468 -17.620131 -7.179345 -8.232365 -6.688897 4.649738 9.227597 0.349226 20.969196 19.469828 28.843626 48.387939 -0.236682 14.75961 8.047249 10.384377 2.94851 3.338747 -8.509959 -7.528432 -1.601631 9.225949 -1.931028 4.758497 -4.987444 2.032237 10.197256 2.200035 -8.901582 -6.637671 -16.233143 -3.717941 -6.287166 16.562323 -3.042388 8.15271 -0.379993 3.329835 -8.104948 -9.213774 7.352597 3.500513 
-0.076256 0.549067 1.673248 108.683952 -79.970009 112.286423 -13.009955 6.286968 -2.57521 2.22458 -5.79154 -8.080782 -8.953537 -9.340185 8.377289 -6.876644 -9.178581 -4.707788 -6.545388 10.027026 1.217073 -3.028451 10.998677 -16.264887 25.280285 -28.912741 -49.038078 8.928183 -17.595543 -7.19251 -8.427306 -6.774792 4.719733 9.396331 0.422956 20.974531 19.400906 29.386024 48.33902 0.091815 14.203249 8.163679 10.629424 3.079121 3.370292 -9.888371 -8.070436 -1.731776 8.94743 -2.222592 4.814404 -4.698285 1.783898 10.120965 2.477936 -9.072898 -6.651154 -15.665905 -3.811363 -6.059452 17.694099 -2.74775 8.131305 -1.093038 3.651257 -8.23401 -9.440521 7.506408 3.595574 
-0.090775 0.547886 1.671191 120.851105 -78.937996 124.478058 -13.283619 6.478901 -2.684801 2.511822 -5.90466 -8.223976 -8.893812 -9.855705 8.502789 -7.082266 -9.543524 -4.631891 -6.717311 10.318219 1.260781 -3.225467 11.114712 -16.271879 25.376926 -29.183004 -48.537563 9.069151 -17.798609 -7.226293 -8.703962 -6.903441 4.833554 9.651999 0.531159 20.955414 19.522358 29.800993 48.140827 0.606343 13.836811 8.351628 10.968799 3.228187 3.429143 -11.133464 -8.712988 -1.912719 8.341536 -2.498803 4.918245 -4.336945 1.538906 10.188993 2.807463 -9.290579 -6.711907 -14.871473 -3.871477 -5.895924 18.718634 -2.260258 8.069349 -1.689494 3.907273 -8.493109 -9.744702 7.731079 3.726526 
-0.106839 0.54705 1.669044 127.934799 -77.647026 131.603455 -13.636364 6.693094 -2.786858 2.771161 -6.086471 -8.39607 -9.094234 -10.343504 8.623989 -7.298953 -9.963886 -4.613095 -6.864017 10.635495 1.307468 -3.401464 11.247943 -16.381998 25.578346 -29.331791 -48.079918 9.298453 -18.425898 -7.306208 -8.975679 -7.029434 4.944953 9.98721 0.568345 20.930315 20.037649 29.787458 48.030025 1.056368 13.834217 8.608617 11.310948 3.394083 3.49366 -12.60127 -9.264793 -2.120327 7.803168 -2.660847 4.986292 -4.061495 1.227515 10.264488 3.149784 -9.483734 -6.789677 -14.149467 -3.77999 -5.926217 19.704634 -1.606752 7.999422 -2.27212 3.985318 -8.812817 -10.073604 7.959275 3.867567 
-0.122774 0.546503 1.666448 132.768021 -76.840103 136.408127 -13.85075 6.661501 -2.834013 2.867315 -6.153757 -8.3635 -8.954144 -10.658809 8.683131 -7.438945 -10.095567 -4.51313 -6.879354 10.632351 1.293413 -3.482024 11.153604 -16.450151 25.73987 -29.789856 -47.705482 9.52845 -19.292231 -7.147733 -9.020821 -6.946013 4.881639 10.103741 0.353291 20.966141 20.561411 29.401653 48.035927 1.582225 14.190473 8.733171 11.335198 3.446145 3.434977 -14.044457 -9.33069 -2.35878 7.542379 -2.79669 4.908177 -3.708125 1.095779 10.180946 3.364106 -9.460927 -6.712616 -12.665685 -3.042235 -5.869512 19.627062 -0.657896 7.737147 -3.044977 4.135241 -8.642727 -10.172276 7.940109 3.864259 
-0.137975 0.545702 1.662926 137.640091 -75.834404 141.161118 -14.054352 6.535358 -2.924858 3.020892 -6.272841 -8.227109 -8.689273 -11.062091 8.759408 -7.357849 -10.113254 -4.367732 -6.892352 10.578597 1.277682 -3.692956 11.015238 -16.508648 25.649843 -30.362219 -47.297207 9.097713 -20.171741 -6.984027 -9.016787 -6.854601 4.797012 10.115655 0.013081 21.134937 21.126329 28.627705 47.94141 2.450871 14.961014 8.902402 11.315854 3.516104 3.362452 -15.871482 -9.163588 -2.319163 7.088673 -2.66277 4.582367 -3.224767 1.084133 10.146081 3.571383 -9.440954 -6.616554 -10.356138 -1.652887 -5.643883 19.12887 0.714241 7.354521 -3.882378 4.487282 -8.245702 -10.295048 7.903961 3.848256 
